HIERARCHY
ROOT Hips
{
	OFFSET -0.001795 -0.223333 0.028219
	CHANNELS 6 Xposition Yposition Zposition Zrotation Yrotation Xrotation 
	JOINT LeftUpLeg
	{
		OFFSET 0.069520 -0.091406 -0.006815
		CHANNELS 3 Zrotation Yrotation Xrotation
		JOINT LeftLeg
		{
			OFFSET 0.034277 -0.375199 -0.004496
			CHANNELS 3 Zrotation Yrotation Xrotation
			JOINT LeftFoot
			{
				OFFSET -0.013596 -0.397961 -0.043693
				CHANNELS 3 Zrotation Yrotation Xrotation
				JOINT LeftToe
				{
					OFFSET 0.026358 -0.055791 0.119288
					CHANNELS 3 Zrotation Yrotation Xrotation
					End Site
					{
						OFFSET 0.000000 0.000000 0.000000
					}
				}
			}
		}
	}
	JOINT RightUpLeg
	{
		OFFSET -0.067670 -0.090522 -0.004320
		CHANNELS 3 Zrotation Yrotation Xrotation
		JOINT RightLeg
		{
			OFFSET -0.038290 -0.382569 -0.008850
			CHANNELS 3 Zrotation Yrotation Xrotation
			JOINT RightFoot
			{
				OFFSET 0.015774 -0.398415 -0.042312
				CHANNELS 3 Zrotation Yrotation Xrotation
				JOINT RightToe
				{
					OFFSET -0.025372 -0.048144 0.123348
					CHANNELS 3 Zrotation Yrotation Xrotation
					End Site
					{
						OFFSET 0.000000 0.000000 0.000000
					}
				}
			}
		}
	}
	JOINT Spine
	{
		OFFSET -0.002533 0.108963 -0.026696
		CHANNELS 3 Zrotation Yrotation Xrotation
		JOINT Spine1
		{
			OFFSET 0.005487 0.135180 0.001092
			CHANNELS 3 Zrotation Yrotation Xrotation
			JOINT Spine2
			{
				OFFSET 0.001457 0.052922 0.025425
				CHANNELS 3 Zrotation Yrotation Xrotation
				JOINT Neck
				{
					OFFSET -0.002778 0.213870 -0.042857
					CHANNELS 3 Zrotation Yrotation Xrotation
					JOINT Head
					{
						OFFSET 0.005152 0.064970 0.051349
						CHANNELS 3 Zrotation Yrotation Xrotation
						End Site
						{
							OFFSET 0.000000 0.000000 0.000000
						}
					}
				}
				JOINT LeftShoulder
				{
					OFFSET 0.078845 0.121749 -0.034090
					CHANNELS 3 Zrotation Yrotation Xrotation
					JOINT LeftArm
					{
						OFFSET 0.090977 0.030469 -0.008868
						CHANNELS 3 Zrotation Yrotation Xrotation
						JOINT LeftForeArm
						{
							OFFSET 0.259612 -0.012772 -0.027456
							CHANNELS 3 Zrotation Yrotation Xrotation
							JOINT LeftHand
							{
								OFFSET 0.249234 0.008986 -0.001171
								CHANNELS 3 Zrotation Yrotation Xrotation
								End Site
								{
									OFFSET 0.000000 0.000000 0.000000
								}
							}
						}
					}
				}
				JOINT RightShoulder
				{
					OFFSET -0.081759 0.118833 -0.038615
					CHANNELS 3 Zrotation Yrotation Xrotation
					JOINT RightArm
					{
						OFFSET -0.096012 0.032551 -0.009143
						CHANNELS 3 Zrotation Yrotation Xrotation
						JOINT RightForeArm
						{
							OFFSET -0.253742 -0.013329 -0.021401
							CHANNELS 3 Zrotation Yrotation Xrotation
							JOINT RightHand
							{
								OFFSET -0.255298 0.007772 -0.005559
								CHANNELS 3 Zrotation Yrotation Xrotation
								End Site
								{
									OFFSET 0.000000 0.000000 0.000000
								}
							}
						}
					}
				}
			}
		}
	}
}
MOTION
Frames: 11
Frame Time: 0.050000
0.000000 0.928626 0.000000 -0.076751 6.737997 11.574697 7.184610 -1.250873 -22.375385 -9.997395 1.434629 12.412603 15.220265 28.217208 15.382072 0.000000 0.000000 0.000000 -7.551682 0.711931 -28.519665 6.540649 -1.235359 14.187229 0.086301 -2.611895 7.781457 0.000000 0.000000 0.000000 6.917452 -3.700007 27.423433 -4.371639 1.727252 -21.592665 -1.399536 2.378618 25.433768 16.785165 -6.994867 -27.379805 0.000000 0.000000 0.000000 -14.435148 -25.089643 10.577591 -32.246267 -30.929156 2.140594 25.835536 -70.884622 -15.513893 0.000000 0.000000 0.000000 23.803261 12.965691 8.664856 30.373895 49.168812 6.196735 -37.482340 62.523425 -17.228422 0.000000 0.000000 0.000000 
-0.000567 0.928913 -0.000218 0.050332 7.003264 12.670869 7.648078 -1.260567 -23.234218 -10.824710 1.546665 11.645151 15.080416 28.066560 15.715577 0.000000 0.000000 0.000000 -8.634226 0.452413 -29.037702 8.496161 -1.679451 13.145355 -0.395152 -3.675827 8.010174 0.000000 0.000000 0.000000 6.467632 -3.292333 25.179178 -2.502785 1.282832 -21.388985 -1.927101 3.527138 26.209946 18.110302 -7.511243 -27.760661 0.000000 0.000000 0.000000 -15.896968 -24.291118 10.036456 -31.526389 -30.182494 1.862268 20.982541 -72.162601 -12.649899 0.000000 0.000000 0.000000 25.278770 11.789305 8.672347 29.036746 49.067966 5.459636 -38.641506 64.600632 -18.445772 0.000000 0.000000 0.000000 
-0.000887 0.928135 -0.000347 0.189158 7.420272 12.177645 7.785769 -1.247999 -23.022059 -11.312056 1.639612 12.112206 14.868208 27.825671 15.382001 0.000000 0.000000 0.000000 -8.232770 0.498301 -28.981726 7.481269 -1.532277 14.726352 -0.467121 -3.352688 6.504923 0.000000 0.000000 0.000000 7.311631 -3.483219 24.741711 -3.456194 1.532516 -20.449615 -1.861589 2.679929 25.430196 17.313913 -7.518273 -26.082845 0.000000 0.000000 0.000000 -16.513899 -23.948734 10.068961 -31.604171 -29.910706 1.864948 16.534362 -70.792020 -9.023548 0.000000 0.000000 0.000000 25.669365 11.647456 8.319138 28.943557 49.012663 5.537457 -33.773196 64.386013 -15.615009 0.000000 0.000000 0.000000 
-0.001021 0.928465 -0.000393 0.364654 7.201912 12.236140 7.654244 -1.297966 -23.794869 -11.371980 1.728734 13.372876 15.010055 27.960774 15.986728 0.000000 0.000000 0.000000 -8.707295 0.396543 -29.374115 7.930463 -1.658164 15.063199 -0.293588 -3.157304 7.029868 0.000000 0.000000 0.000000 7.854322 -3.572462 24.442662 -3.871260 1.638962 -19.933627 -2.309290 2.946198 25.017887 17.718336 -7.586688 -26.379055 0.000000 0.000000 0.000000 -16.032485 -23.695259 9.822086 -32.681482 -28.816278 1.801506 13.716984 -70.263659 -7.012802 0.000000 0.000000 0.000000 24.586363 10.783369 7.636371 31.365531 49.581574 6.734279 -31.451579 64.216291 -13.961959 0.000000 0.000000 0.000000 
-0.000996 0.927210 -0.000423 0.685066 7.067356 11.656949 7.068195 -1.352327 -23.455738 -11.049408 1.699978 14.029991 15.112580 28.097469 15.666323 0.000000 0.000000 0.000000 -8.861388 0.366221 -29.196043 7.910571 -1.684678 15.700666 -0.592696 -3.748490 6.788773 0.000000 0.000000 0.000000 7.808676 -3.582703 24.761133 -3.645661 1.581995 -20.214394 -2.245936 2.927307 25.579471 17.025054 -7.241510 -26.214512 0.000000 0.000000 0.000000 -16.705926 -23.575981 9.853259 -33.069453 -28.984211 1.873876 11.703034 -68.645048 -5.370695 0.000000 0.000000 0.000000 23.205760 11.010555 7.527048 32.824009 49.853619 7.467336 -29.322029 62.279475 -12.201321 0.000000 0.000000 0.000000 
-0.000914 0.927837 -0.000825 0.808688 6.862495 11.546778 6.760756 -1.373431 -23.241922 -10.788510 1.651266 13.903983 15.169520 28.127558 15.891154 0.000000 0.000000 0.000000 -9.031984 0.337444 -29.483585 7.997560 -1.716135 16.028444 -0.517944 -3.828488 7.532454 0.000000 0.000000 0.000000 7.913866 -3.583825 24.688922 -3.761816 1.605376 -20.288542 -2.133825 3.324082 25.553093 17.013504 -7.105925 -26.568577 0.000000 0.000000 0.000000 -16.246997 -23.971695 9.928823 -33.427706 -28.506014 1.813829 6.700403 -67.890082 -2.023451 0.000000 0.000000 0.000000 23.017513 10.998110 7.580145 32.617819 49.311598 7.230632 -28.322595 61.746276 -11.485229 0.000000 0.000000 0.000000 
-0.000719 0.927905 -0.001482 1.111299 6.944605 11.446554 6.359717 -1.440786 -23.286880 -10.691755 1.634663 14.140626 15.099187 28.029817 15.988298 0.000000 0.000000 0.000000 -9.298310 0.258276 -29.530593 8.028366 -1.741558 16.219585 -0.732250 -4.321793 7.689712 0.000000 0.000000 0.000000 7.868088 -3.586842 24.797019 -3.403895 1.521301 -20.301810 -2.264366 3.334096 25.438466 16.594055 -6.710277 -27.012364 0.000000 0.000000 0.000000 -16.044415 -23.883828 9.832656 -33.696424 -28.076352 1.760480 3.168583 -67.580048 0.305597 0.000000 0.000000 0.000000 22.936418 11.195799 7.702296 32.668472 48.899798 7.151785 -27.302892 61.267053 -10.808174 0.000000 0.000000 0.000000 
-0.000450 0.928412 -0.002149 1.260051 6.980567 11.384137 6.295495 -1.440042 -23.096736 -10.898690 1.662049 13.855364 15.025161 27.914914 16.124781 0.000000 0.000000 0.000000 -9.386146 0.224778 -29.817746 7.782622 -1.704581 16.714724 -0.632856 -4.216048 8.064690 0.000000 0.000000 0.000000 8.008509 -3.635716 24.855538 -3.459274 1.533441 -20.515012 -2.274757 3.436309 25.516208 16.677321 -6.848904 -26.668093 0.000000 0.000000 0.000000 -15.973415 -24.014087 9.866647 -33.306588 -27.723142 1.620218 -0.641259 -67.135378 2.772493 0.000000 0.000000 0.000000 23.466290 10.985469 7.695546 32.135039 48.308503 6.715038 -26.177328 61.510052 -10.216857 0.000000 0.000000 0.000000 
0.000047 0.929006 -0.002482 1.351489 6.977016 11.340715 6.093792 -1.464498 -23.020617 -11.063991 1.696513 13.889627 15.305565 28.288905 15.973396 0.000000 0.000000 0.000000 -9.211642 0.262671 -29.949285 7.373540 -1.600764 16.904769 -0.765031 -4.583145 8.387678 0.000000 0.000000 0.000000 8.096454 -3.667195 24.911878 -3.266995 1.486333 -20.474477 -2.338155 3.495671 25.360505 16.519851 -6.797350 -26.412172 0.000000 0.000000 0.000000 -15.671801 -23.935663 9.773587 -33.072410 -27.630436 1.580069 -3.470291 -67.260290 4.613026 0.000000 0.000000 0.000000 23.610841 11.012687 7.750870 31.890575 48.039567 6.546739 -25.478314 61.205269 -9.769127 0.000000 0.000000 0.000000 
0.000660 0.929637 -0.002493 1.507681 7.049812 11.190409 5.761688 -1.499872 -22.784744 -11.231045 1.724186 13.871950 15.690377 28.795526 15.810625 0.000000 0.000000 0.000000 -9.247963 0.237471 -30.134701 7.117028 -1.559272 17.400695 -0.816496 -4.816488 8.874992 0.000000 0.000000 0.000000 8.125342 -3.708561 25.132377 -3.212354 1.473814 -20.631251 -2.293529 3.379777 25.391742 16.643234 -6.832269 -26.625238 0.000000 0.000000 0.000000 -15.329193 -24.050717 9.810712 -33.011536 -27.601761 1.560201 -4.345371 -67.382996 5.203504 0.000000 0.000000 0.000000 23.472953 11.009732 7.704792 32.158067 47.740044 6.563696 -25.017471 60.938904 -9.456087 0.000000 0.000000 0.000000 
0.001366 0.930185 -0.002231 1.492167 7.097421 11.080943 5.563445 -1.522606 -22.684628 -11.459171 1.773035 13.988623 16.369982 29.679798 15.677928 0.000000 0.000000 0.000000 -9.204222 0.240564 -30.158726 6.987412 -1.542437 17.729038 -0.791620 -4.788936 8.975377 0.000000 0.000000 0.000000 8.256154 -3.743183 25.115911 -3.063293 1.438374 -20.599396 -2.359789 3.248975 25.341686 16.946726 -7.025531 -26.618948 0.000000 0.000000 0.000000 -15.195421 -24.155635 9.870527 -33.100709 -27.678010 1.591583 -5.312347 -67.361910 5.865777 0.000000 0.000000 0.000000 23.395955 10.996359 7.644084 32.183887 47.531970 6.528966 -24.838466 60.435196 -9.293551 0.000000 0.000000 0.000000 
